<?xml version="1.0" encoding="UTF-8"?><svg id="_レイヤー_2" xmlns="http://www.w3.org/2000/svg" viewBox="0 0 352.88 50.02"><defs><style>.cls-1{fill:#3cb37a;}.cls-1,.cls-2,.cls-3{stroke-width:0px;}.cls-2{fill:#040000;}.cls-3{fill:#006428;}</style></defs><g id="_看護師ワーカー"><g id="_カラー"><g id="_カラー-2"><g id="_ロゴ"><polygon class="cls-3" points="50.02 0 41.06 8.96 41.06 13.8 23.68 31.18 23.68 50.02 41.06 32.64 41.06 40.19 50.02 31.23 50.02 0"/><polygon class="cls-1" points="50.02 0 41.06 8.96 36.22 8.96 18.84 26.35 0 26.35 17.38 8.96 9.83 8.96 18.79 0 50.02 0"/></g></g><path class="cls-2" d="m97.69,22.84v20.17h-5.6v-1.48h-14.4v1.48h-5.56v-12.88c-1.6,1.52-2.8,2.56-4.92,4.16l-3.52-4.24c4.24-2.88,7-5.4,9.68-9h-8.84v-3.96h11.4c.36-.68.56-1.04.84-1.6h-10.04v-3.72h11.64c.16-.36.24-.68.56-1.56-2.12.08-3.4.12-4.12.16-2.12.08-3.56.12-4.12.12l-2.2.04-1.8-3.72c10.96-.12,20.53-.76,27.73-1.84l3.16,3.64c-4.16.56-5.88.76-9.84,1.04l-3.24.28-.2.64q-.2.48-.44,1.2h15.72v3.72h-17.29c-.24.52-.52,1.04-.76,1.6h20.69v3.96h-22.89c-.52.88-.64,1.04-1.12,1.8h19.49Zm-20.01,5.16h14.4v-1.92h-14.4v1.92Zm0,4.88h14.4v-1.88h-14.4v1.88Zm0,5.12h14.4v-2.12h-14.4v2.12Z"/><path class="cls-2" d="m121.7,11.92v4.24h-13.84v-4.24h13.84Zm-.72,26.81c2.72-.12,5.8-.68,8.16-1.36-1.36-.96-3.08-2.48-4.12-3.64h-2.56v-3.96h20.29l2.04,2.16c-1.48,1.92-3.52,3.72-6,5.36,2.2.56,4.96,1,7.84,1.2l-2.48,4.68c-3.68-.56-7.24-1.64-10.36-3.08-3.28,1.56-6.88,2.64-10.56,3.2l-2.24-4v2.04h-7.76v1.68h-4.48v-13.68h12.24v9.4Zm15.56-20.37h7.24v2.4h-7.24v1.24h7.24v2.32h-7.24v1.32h9.16v2.88h-22.77v-7.28c-.64.56-.68.6-1.28,1.04l-1.52-3.8v3.36h-10.88v-3.88h10.68c1.8-1.2,3.72-3.8,4.48-6l1.52.28v-1.12h-4.48v-3.72h4.48v-2.4h4.88v2.4h4.48v-2.4h5.04v2.4h5.4v3.72h-5.4v1.84h-2.72c-.16.48-.44,1.04-.68,1.52h8.04v2.64h-8.44v1.24Zm-16.12-12.24v4.04h-11.16v-4.04h11.16Zm-.28,17.52v3.8h-10.88v-3.8h10.88Zm-6.92,13.48h3.36v-3.72h-3.36v3.72Zm14.36-20.01v1.24h4.36v-1.24h-4.36Zm0,3.64v1.24h4.36v-1.24h-4.36Zm0,3.56v1.32h4.36v-1.32h-4.36Zm4.48-9.84c.28-.72.48-1.36.8-2.4l2.44.24v-1.2h-4.48v1.84h-2.12c-.16.4-.44,1.04-.68,1.52h4.04Zm-1.96,18.85c1.2.88,2.4,1.6,3.72,2.24,1.24-.6,2.52-1.4,3.6-2.24h-7.32Z"/><path class="cls-2" d="m168.36,9.08v13.12h-9.64v3.48h9.96v13.76h-9.96v2.68h-4.92V9.08h4.16l.2-.6c.44-1.24.76-2.44,1.04-3.68l5.56.68c-.32.76-1.12,2.4-1.76,3.6h5.36Zm-9.64,4.52v4.12h4.96v-4.12h-4.96Zm0,16.56v4.56h5.2v-4.56h-5.2Zm18.57-18.69h-7.92v-4.92h21.29v4.92h-8.4v4.28h7.4v17.8c0,3-.96,4-3.84,4-.68,0-1.56-.04-2.52-.16l-.88-5.04c.76.12,1.36.16,1.84.16.56,0,.72-.2.72-.84v-11.04h-2.72v22.37h-4.96v-22.37h-2.36v17.61h-4.64V15.76h7v-4.28Z"/><path class="cls-2" d="m229.71,8.88c-.04,11.56-1.24,18.29-4.16,22.93-2.32,4.12-8.96,8.12-16.16,9.72l-3.12-5.08c13.2-2.92,16.97-7.8,17.25-22.33h-19.65v10.48h-5.84v-15.72h31.69Z"/><path class="cls-2" d="m271.94,20.6v5.68h-34.41v-5.68h34.41Z"/><path class="cls-2" d="m290.44,13.32v-.36l.04-1.84c.04-1.72.08-3.24.08-5.12h6c0,2.92-.04,4.44-.16,7.32h14.04c-.12,12.12-.72,20.61-1.56,23.45-.92,3-2.8,4.12-6.92,4.12-1.88,0-3.8-.16-6-.48l-.88-5.64c2.48.48,4.48.72,6.04.72,1.44,0,1.76-.24,2.04-1.76.6-2.8,1.12-9.8,1.16-15.2h-8.24c-.44,4.96-1.8,9.64-3.6,12.6-2.44,4.04-6.28,7.56-10.84,9.96l-3.92-4.72c4.16-2.04,7.64-5,9.64-8.2,1.32-2.16,2.36-5.76,2.8-9.64h-11.04v-5.2h11.32Z"/><path class="cls-2" d="m352.88,20.6v5.68h-34.41v-5.68h34.41Z"/></g></g></svg>